<svg width="49.5" height="49.5" xmlns="http://www.w3.org/2000/svg">
 <g>
  <title>Layer 1</title>
  <path id="svg_1" fill="#ffffff" d="m24.7845,0.157c-13.6,0 -24.625,11.027 -24.625,24.625c0,13.6 11.025,24.622999 24.625,24.622999c13.600002,0 24.625,-11.022999 24.625,-24.622999c0,-13.598 -11.026001,-24.625 -24.625,-24.625zm6.516998,24.522001l-4.264,0c0,6.813999 0,15.207001 0,15.207001l-6.32,0c0,0 0,-8.307003 0,-15.207001l-3.006001,0l0,-5.369001l3.006001,0l0,-3.479c0,-2.49 1.181999,-6.376999 6.379,-6.376999l4.679998,0.018l0,5.215c0,0 -2.846001,0 -3.397999,0c-0.555,0 -1.34,0.277 -1.34,1.461l0,3.163l4.818001,0l-0.555,5.368z"/>
 </g>
</svg>