<svg width="50" height="50" xmlns="http://www.w3.org/2000/svg">
 <g>
  <title>Layer 1</title>
  <path id="svg_1" fill="#ffffff" d="m25,0.375c-13.599999,0 -24.625,11.027 -24.625,24.625c0,13.599998 11.025001,24.622997 24.625,24.622997c13.600002,0 24.623001,-11.022999 24.623001,-24.622997c0,-13.598 -11.024002,-24.625 -24.623001,-24.625zm12.403999,19.66c0.013,0.266001 0.018002,0.533001 0.018002,0.803001c0,8.200998 -6.242001,17.655998 -17.656,17.655998c-3.504,0 -6.767,-1.027 -9.513,-2.787003c0.486,0.057003 0.978999,0.086002 1.48,0.086002c2.908001,0 5.584002,-0.992001 7.707001,-2.656002c-2.715,-0.050999 -5.006001,-1.845995 -5.796,-4.310995c0.378,0.073997 0.767,0.111 1.167,0.111c0.565999,0 1.114,-0.074001 1.635,-0.217003c-2.84,-0.57 -4.979001,-3.079998 -4.979001,-6.084c0,-0.026999 0,-0.052999 0.001,-0.08c0.836,0.465 1.792998,0.744001 2.811001,0.777c-1.666,-1.115 -2.761002,-3.011999 -2.761002,-5.166c0,-1.136999 0.306,-2.203999 0.84,-3.119999c3.061001,3.754 7.634001,6.225 12.792,6.483c-0.105999,-0.453001 -0.160999,-0.927999 -0.160999,-1.414c0,-3.426001 2.778,-6.205 6.205999,-6.205c1.785,0 3.396999,0.754 4.528999,1.959c1.414001,-0.277 2.742001,-0.795001 3.941002,-1.506001c-0.465,1.450001 -1.448002,2.666 -2.73,3.433001c1.257,-0.15 2.452999,-0.484001 3.564999,-0.977001c-0.829998,1.247002 -1.882999,2.34 -3.096001,3.215z"/>
 </g>
</svg>